<?xml version="1.0" encoding="UTF-8"?>
<svg id="Layer_1" xmlns="http://www.w3.org/2000/svg" version="1.1" viewBox="0 0 437.62 593.05">
  <!-- Generator: Adobe Illustrator 29.7.1, SVG Export Plug-In . SVG Version: 2.1.1 Build 8)  -->
  <defs>
    <style>
      .st0 {
        fill: #ef88b6;
      }

      .st1 {
        fill: #002463;
      }

      .st2 {
        fill: none;
      }

      .st3 {
        fill: #00b6e5;
      }

      .st4 {
        fill: #e3032c;
      }

      .st5 {
        fill: #ffee13;
      }

      .st6 {
        fill: #fff230;
      }
    </style>
  </defs>
  <g>
    <rect class="st4" x="128.01" y="405.75" width="283.65" height="145.88" transform="translate(-104.93 76.82) rotate(-13.59)"/>
    <g>
      <path class="st0" d="M177.61,498.63c8.22,34,2.76,45.07-6.86,47.4l-11.79,2.85-20.72-85.69,11.27-2.72c9.24-2.24,19.61,3.05,28.1,38.16ZM153.91,480.32l11.16,46.16,1.56-.38c4.2-1.02,4-7.2-.25-24.76-4.18-17.31-6.9-22.37-10.82-21.42l-1.65.4Z"/>
      <path class="st0" d="M194.9,509.26l-.99.24,7.06,29.22-10.89,2.63-20.72-85.69,12.78-3.09c9.67-2.34,16.57,4.96,21.26,24.36,2.52,10.43,2.41,17.22.12,24.66l16.17,32.6-12.03,2.91-12.77-27.84ZM189.36,490.72l2.07-.5c2.22-.54,2.48-3.98.88-10.61-1.42-5.89-3.49-8.25-5.8-7.69l-1.6.39,4.45,18.41Z"/>
      <path class="st0" d="M232.17,514.8l-6.7,1.62,2.75,15.71-11.41,2.76-11.33-87.96,12.97-3.14,30.01,83.44-11.51,2.78-4.78-15.22ZM226.1,495.48l-9.55-30.43,5.45,31.43,4.1-.99Z"/>
      <path class="st0" d="M276,520.57l-13.63,3.29-20.31-58.63c2.6,8.47,6.54,20.64,10.4,36.6l5.58,23.08-9.62,2.33-20.72-85.69,13.35-3.23,20.73,58.92c-3.41-11-6.53-20.38-10.47-36.71l-5.64-23.32,9.62-2.33,20.71,85.69Z"/>
      <path class="st0" d="M289.81,517.23l-10.89,2.63-20.72-85.69,10.9-2.63,20.71,85.69ZM289.51,466.63l21.01,45.6-12.31,2.98-19.11-43.72-1.28-42.05,11.13-2.69.56,39.88Z"/>
      <path class="st0" d="M332.37,479.79c5.07,20.99-.59,27.3-9.5,29.45l-11.98,2.9-20.72-85.69,10.75-2.6c9.53-2.3,16.81,1.39,20.96,18.58,2.67,11.05.76,16.58-1.61,19.36,4.04,1.23,8.91,4.86,12.09,18ZM305.73,443.09l3.18,13.13.85-.21c2.83-.68,3.09-2.7,1.82-7.97-.95-3.93-2.26-5.82-4.99-5.16l-.85.21ZM320.67,480.54c-1.33-5.53-3.2-7.67-5.98-7l-1.51.37,3.83,15.84,1.23-.3c2.55-.62,4.07-2.15,2.44-8.9Z"/>
      <path class="st0" d="M360.53,454.66c6.71,27.74,5.52,47-4.66,49.46-10.23,2.47-19.89-13.51-26.75-41.87-6.71-27.74-5.48-46.62,4.76-49.1,10.19-2.46,19.8,13.14,26.66,41.5ZM340.44,459.52c4.54,18.78,7.32,25.52,10.62,24.72,3.35-.81,2.7-8.06-1.85-26.84-4.54-18.78-7.28-25.14-10.53-24.35-3.25.79-2.78,7.69,1.76,26.47Z"/>
      <path class="st0" d="M400.54,490.47l-13.63,3.29-20.31-58.63c2.6,8.47,6.54,20.64,10.4,36.6l5.58,23.08-9.62,2.33-20.71-85.69,13.35-3.23,20.73,58.92c-3.41-11-6.53-20.38-10.47-36.71l-5.64-23.33,9.62-2.33,20.71,85.69Z"/>
    </g>
    <rect class="st2" x="127.99" y="405.75" width="283.65" height="145.72" transform="translate(-104.92 76.81) rotate(-13.59)"/>
  </g>
  <g>
    <rect class="st5" x="205.2" y="-12.22" width="145.88" height="283.65" transform="translate(35.93 318) rotate(-62.86)"/>
    <g>
      <path class="st3" d="M195.24,84.53c-15.96,31.13-27.32,35.95-36.13,31.44l-10.8-5.53,40.21-78.45,10.32,5.29c8.46,4.34,12.87,15.11-3.61,47.25ZM189.23,55.19l-21.66,42.26,1.43.73c3.84,1.97,7.73-2.85,15.97-18.92,8.12-15.85,9.36-21.46,5.78-23.29l-1.51-.77Z"/>
      <path class="st3" d="M201.41,103.87l-.91-.46-13.71,26.75-9.97-5.11,40.21-78.45,11.7,6c8.85,4.54,9.32,14.57.22,32.33-4.9,9.55-9.4,14.62-16,18.76l-9.02,35.26-11.01-5.64,8.49-29.43ZM209.32,86.21l1.9.97c2.03,1.04,4.48-1.39,7.59-7.46,2.76-5.4,2.74-8.53.62-9.62l-1.47-.75-8.64,16.86Z"/>
      <path class="st3" d="M226.04,132.39l-6.13-3.14-8.17,13.7-10.45-5.36,48.81-74.04,11.88,6.09-31.71,82.81-10.54-5.4,6.31-14.65ZM234.05,113.79l12.62-29.3-16.38,27.37,3.76,1.93Z"/>
      <path class="st3" d="M255.48,165.36l-12.48-6.4,22.86-57.68c-3.56,8.11-8.51,19.91-16,34.52l-10.83,21.13-8.81-4.52,40.21-78.45,12.22,6.26-22.73,58.17c4.59-10.56,8.35-19.7,16.02-34.65l10.95-21.35,8.81,4.52-40.21,78.45Z"/>
      <path class="st3" d="M268.13,171.85l-9.97-5.11,40.21-78.45,9.97,5.11-40.21,78.45ZM300.91,133.3l-13.83,48.26-11.27-5.78,14.05-45.59,26.47-32.7,10.19,5.22-25.6,30.59Z"/>
      <path class="st3" d="M324.81,171.24c-9.85,19.22-18.26,20.3-26.42,16.12l-10.97-5.62,40.21-78.45,9.85,5.05c8.72,4.47,11.83,12.03,3.76,27.76-5.18,10.12-10.24,13.06-13.85,13.62,2.26,3.57,3.58,9.5-2.58,21.53ZM315.46,164.18c2.59-5.06,2.58-7.9.03-9.21l-1.38-.71-7.43,14.5,1.12.58c2.33,1.2,4.49,1.02,7.66-5.16ZM328.57,126.05l-6.16,12.03.78.4c2.59,1.33,4.1-.03,6.58-4.86,1.84-3.6,2.09-5.88-.42-7.17l-.78-.4Z"/>
      <path class="st3" d="M362.55,170.58c-13.02,25.4-26.48,39.22-35.81,34.44-9.37-4.8-6.25-23.22,7.05-49.18,13.02-25.4,26.27-38.9,35.64-34.1,9.33,4.78,6.43,22.88-6.88,48.84ZM344.16,161.15c-8.82,17.2-11.11,24.11-8.08,25.66,3.07,1.57,7.3-4.35,16.12-21.54,8.81-17.2,10.89-23.79,7.91-25.32-2.98-1.53-7.13,4.01-15.94,21.21Z"/>
      <path class="st3" d="M369.5,223.81l-12.48-6.4,22.86-57.68c-3.56,8.11-8.51,19.91-16,34.52l-10.83,21.13-8.81-4.52,40.21-78.45,12.22,6.26-22.73,58.17c4.6-10.56,8.36-19.7,16.02-34.65l10.95-21.35,8.81,4.52-40.21,78.45Z"/>
    </g>
    <rect class="st2" x="136.35" y="56.67" width="283.65" height="145.72" transform="translate(89.72 -112.63) rotate(27.14)"/>
  </g>
  <g>
    <rect class="st5" x="85" y="275.89" width="145.88" height="283.65" transform="translate(-288.49 429.12) rotate(-70.75)"/>
    <g>
      <path class="st3" d="M69.64,384.45c-11.53,33.03-22.12,39.36-31.47,36.1l-11.45-4,29.06-83.23,10.95,3.82c8.98,3.14,14.82,13.2,2.91,47.3ZM59.66,356.22l-15.65,44.83,1.51.53c4.08,1.42,7.27-3.88,13.22-20.93,5.87-16.81,6.33-22.54,2.53-23.87l-1.6-.56Z"/>
      <path class="st3" d="M78.4,402.76l-.96-.34-9.91,28.38-10.58-3.7,29.06-83.23,12.42,4.33c9.39,3.28,11.24,13.15,4.66,31.99-3.54,10.14-7.31,15.78-13.27,20.78l-4.09,36.16-11.68-4.08,4.37-30.31ZM83.81,384.18l2.01.7c2.15.75,4.25-2,6.49-8.44,2-5.72,1.54-8.83-.71-9.61l-1.56-.54-6.25,17.88Z"/>
      <path class="st3" d="M106.71,427.63l-6.5-2.27-6.21,14.69-11.09-3.87,38.18-80.04,12.6,4.4-20.04,86.38-11.18-3.9,4.24-15.38ZM112.09,408.11l8.48-30.75-12.46,29.36,3.99,1.39Z"/>
      <path class="st3" d="M140.4,456.25l-13.24-4.62,14.72-60.27c-2.41,8.52-5.7,20.88-11.11,36.39l-7.83,22.42-9.35-3.26,29.06-83.23,12.96,4.53-14.53,60.74c3.1-11.09,5.57-20.66,11.11-36.52l7.91-22.66,9.34,3.26-29.06,83.23Z"/>
      <path class="st3" d="M153.82,460.93l-10.58-3.7,29.06-83.23,10.58,3.69-29.06,83.23ZM181.01,418.25l-7.07,49.7-11.96-4.17,7.65-47.09,21.73-36.02,10.81,3.77-21.16,33.81Z"/>
      <path class="st3" d="M209.88,452.55c-7.12,20.39-15.3,22.62-23.96,19.59l-11.64-4.06,29.06-83.23,10.44,3.65c9.25,3.23,13.37,10.29,7.54,26.98-3.75,10.73-8.35,14.34-11.85,15.39,2.73,3.23,4.85,8.92.4,21.68ZM199.65,446.84c1.87-5.37,1.47-8.18-1.23-9.13l-1.46-.51-5.37,15.38,1.19.42c2.47.86,4.59.4,6.88-6.16ZM207.4,407.27l-4.45,12.76.82.29c2.75.96,4.06-.59,5.85-5.72,1.33-3.82,1.26-6.11-1.4-7.04l-.82-.29Z"/>
      <path class="st3" d="M247.18,446.71c-9.41,26.95-20.85,42.49-30.74,39.03-9.94-3.47-9.38-22.14.23-49.68,9.41-26.95,20.68-42.14,30.62-38.67,9.89,3.46,9.51,21.78-.11,49.32ZM227.66,439.9c-6.37,18.24-7.69,25.41-4.48,26.53,3.25,1.14,6.63-5.31,13-23.55,6.37-18.24,7.52-25.07,4.36-26.17-3.16-1.1-6.51,4.95-12.88,23.19Z"/>
      <path class="st3" d="M261.37,498.49l-13.24-4.62,14.72-60.27c-2.41,8.52-5.7,20.89-11.11,36.39l-7.83,22.42-9.35-3.26,29.06-83.23,12.96,4.53-14.53,60.74c3.1-11.09,5.57-20.66,11.11-36.52l7.91-22.66,9.35,3.26-29.06,83.23Z"/>
    </g>
    <rect class="st2" x="16.14" y="344.78" width="283.65" height="145.72" transform="translate(146.51 -28.73) rotate(19.25)"/>
  </g>
  <g>
    <rect class="st4" x="13" y="179.45" width="283.65" height="145.88" transform="translate(-25.94 17.88) rotate(-6.1)"/>
    <g>
      <path class="st0" d="M60.78,260.13c3.72,34.79-3.14,45.05-12.98,46.1l-12.06,1.29-9.37-87.66,11.53-1.23c9.46-1.01,19.04,5.59,22.88,41.5ZM39.67,238.89l5.05,47.22,1.59-.17c4.29-.46,4.9-6.62,2.99-24.58-1.89-17.71-3.93-23.08-7.94-22.65l-1.69.18Z"/>
      <path class="st0" d="M76.54,272.93l-1.01.11,3.19,29.89-11.15,1.19-9.37-87.66,13.08-1.4c9.89-1.06,15.79,7.08,17.91,26.92,1.14,10.67.15,17.38-3.09,24.46l11.78,34.43-12.3,1.31-9.03-29.26ZM73.47,253.82l2.12-.23c2.27-.24,2.98-3.62,2.26-10.4-.64-6.03-2.39-8.64-4.75-8.38l-1.64.18,2.01,18.84Z"/>
      <path class="st0" d="M112.77,283.28l-6.85.73.68,15.93-11.68,1.25.23-88.68,13.27-1.42,18.87,86.64-11.77,1.26-2.75-15.71ZM109.27,263.33l-5.5-31.42,1.31,31.87,4.2-.45Z"/>
      <path class="st0" d="M155.47,294.72l-13.94,1.49-12.5-60.78c1.47,8.73,3.79,21.31,5.54,37.64l2.52,23.61-9.84,1.05-9.37-87.66,13.65-1.46,12.88,61.12c-1.94-11.35-3.81-21.06-5.6-37.76l-2.55-23.86,9.84-1.05,9.37,87.66Z"/>
      <path class="st0" d="M169.6,293.21l-11.15,1.19-9.37-87.66,11.15-1.19,9.37,87.66ZM175.9,243l14.88,47.95-12.59,1.35-13.24-45.83,4.21-41.86,11.39-1.22-4.65,39.62Z"/>
      <path class="st0" d="M216.68,261.63c2.29,21.47-4.14,26.99-13.26,27.96l-12.26,1.31-9.37-87.66,11-1.17c9.75-1.04,16.49,3.57,18.37,21.15,1.21,11.3-1.4,16.54-4.12,18.98,3.85,1.75,8.2,5.98,9.64,19.42ZM195.05,221.78l1.44,13.44.87-.09c2.9-.31,3.42-2.27,2.84-7.67-.43-4.02-1.48-6.07-4.28-5.77l-.87.09ZM204.98,260.85c-.6-5.65-2.18-8.02-5.02-7.72l-1.54.17,1.73,16.2,1.25-.13c2.61-.28,4.32-1.6,3.58-8.51Z"/>
      <path class="st0" d="M247.88,240.39c3.03,28.38-.65,47.32-11.07,48.43-10.47,1.12-17.96-15.99-21.06-45-3.03-28.38.65-46.94,11.12-48.06,10.42-1.11,17.92,15.61,21.02,44.62ZM227.33,242.59c2.05,19.21,3.93,26.25,7.31,25.89,3.43-.37,3.72-7.64,1.67-26.85-2.05-19.21-3.94-25.87-7.27-25.52-3.33.36-3.76,7.26-1.71,26.48Z"/>
      <path class="st0" d="M282.87,281.11l-13.94,1.49-12.5-60.78c1.47,8.73,3.79,21.32,5.54,37.64l2.52,23.61-9.84,1.05-9.37-87.66,13.65-1.46,12.88,61.12c-1.94-11.35-3.81-21.06-5.6-37.76l-2.55-23.86,9.84-1.05,9.37,87.66Z"/>
    </g>
    <rect class="st2" x="12.99" y="179.45" width="283.65" height="145.72" transform="translate(-25.94 17.88) rotate(-6.1)"/>
  </g>
  <rect class="st1" x="184.59" y="140.99" width="147.22" height="286.26" transform="translate(-59.44 499.76) rotate(-81.91)"/>
  <g>
    <path class="st6" d="M169.03,252.63l-15.54-2.21-1.94,13.63,13.65,1.94-2.78,19.56-13.65-1.94-2.08,14.64,16.66,2.37-2.87,20.19-32.83-4.67,12.52-88.09,33.32,4.74-4.46,19.84Z"/>
    <path class="st6" d="M205.5,257.81l-15.54-2.21-1.94,13.63,13.65,1.94-2.78,19.56-13.65-1.94-2.08,14.64,16.66,2.37-2.87,20.19-32.83-4.67,12.52-88.09,33.32,4.74-4.46,19.84Z"/>
    <path class="st6" d="M246.24,265.15l-10.57-1.5-9.46,66.51-16.17-2.3,9.46-66.51-11.41-1.62,3.07-21.58,39.83,5.66-4.75,21.34Z"/>
    <path class="st6" d="M284.92,311.59c-3.07,21.58-13.83,24.94-27.06,23.06l-17.78-2.53,12.52-88.09,15.96,2.27c14.14,2.01,22.35,8.58,19.84,26.25-1.61,11.36-6.86,15.63-11.44,17.17,4.95,2.89,9.88,8.36,7.96,21.86ZM265.95,266.15l-1.92,13.5,1.26.18c4.2.6,5.52-1.15,6.29-6.57.57-4.04-.31-6.35-4.37-6.93l-1.26-.18ZM268.54,307.2c.81-5.68-.72-8.47-4.85-9.06l-2.24-.32-2.31,16.28,1.82.26c3.78.54,6.6-.22,7.59-7.16Z"/>
    <path class="st6" d="M335.47,300.62c-4.05,28.52-14.86,45.78-29.98,43.63-15.19-2.16-20.78-21.11-16.64-50.26,4.05-28.52,14.74-45.41,29.93-43.26,15.12,2.15,20.83,20.73,16.69,49.88ZM305.65,296.38c-2.75,19.31-2.16,26.73,2.74,27.43,4.97.71,7.53-6.27,10.28-25.58,2.74-19.31,2.03-26.36-2.8-27.05-4.83-.69-7.48,5.89-10.23,25.2Z"/>
    <path class="st6" d="M373.15,351.04l-20.23-2.88.16-62.94c-.49,8.94-.9,21.89-3.23,38.29l-3.37,23.73-14.28-2.03,12.52-88.09,19.81,2.82.27,63.39c.58-11.63.79-21.65,3.18-38.43l3.41-23.98,14.28,2.03-12.52,88.09Z"/>
  </g>
</svg>