<?xml version="1.0" encoding="UTF-8"?>
<svg id="Layer_1" xmlns="http://www.w3.org/2000/svg" version="1.1" viewBox="0 0 453.37 313.01">
  <!-- Generator: Adobe Illustrator 29.7.1, SVG Export Plug-In . SVG Version: 2.1.1 Build 8)  -->
  <defs>
    <style>
      .st0 {
        fill: #fff;
      }

      .st1 {
        fill: #ffee13;
      }
    </style>
  </defs>
  <g>
    <path class="st0" d="M2.96,107.52v182.81c0,10.87,8.85,19.72,19.72,19.72h408.01c10.87,0,19.72-8.85,19.72-19.72V107.52H2.96Z"/>
    <path d="M430.69,313.01H22.68c-12.5,0-22.68-10.17-22.68-22.68V104.56h453.37v185.77c0,12.5-10.17,22.68-22.68,22.68ZM5.92,110.48v179.85c0,9.24,7.52,16.76,16.76,16.76h408.01c9.24,0,16.76-7.52,16.76-16.76V110.48H5.92Z"/>
  </g>
  <g>
    <circle class="st1" cx="227.93" cy="210.95" r="69.11" transform="translate(11.35 433.54) rotate(-88.57)"/>
    <path d="M227.93,284.28c-40.44,0-73.33-32.9-73.33-73.33s32.9-73.33,73.33-73.33,73.33,32.9,73.33,73.33-32.9,73.33-73.33,73.33ZM227.93,146.05c-35.79,0-64.9,29.11-64.9,64.9s29.11,64.9,64.9,64.9,64.9-29.11,64.9-64.9-29.11-64.9-64.9-64.9Z"/>
  </g>
  <path d="M0,0v108.49h453.37V22.68c0-12.52-10.15-22.68-22.68-22.68H0Z"/>
  <path d="M357.65,210.28h-12.06v-44.9h11.47c16.02,0,24.13,6.92,24.13,21.56,0,17.21-8.9,23.34-23.54,23.34M357.45,142.24h-44.3v137.06h32.44v-45.69h14.83c31.64,0,54.19-14.83,54.19-46.68,0-30.06-21.76-44.7-57.16-44.7"/>
  <path d="M345.58,280.33h-32.44c-.57,0-1.03-.46-1.03-1.03v-137.06c0-.57.46-1.03,1.03-1.03h44.3c37.53,0,58.19,16.24,58.19,45.73,0,15.64-5.25,27.78-15.62,36.09-9.49,7.6-23.18,11.62-39.61,11.62h-13.8v44.65c0,.57-.46,1.03-1.03,1.03ZM314.18,278.27h30.37v-44.65c0-.57.46-1.03,1.03-1.03h14.83c33.78,0,53.16-16.64,53.16-45.64,0-14.33-5.01-25.37-14.89-32.8-9.59-7.21-23.46-10.87-41.23-10.87h-43.27v134.99ZM357.65,211.31h-12.06c-.57,0-1.03-.46-1.03-1.03v-44.9c0-.57.46-1.03,1.03-1.03h11.47c16.7,0,25.16,7.6,25.16,22.59,0,16.4-8.04,24.37-24.57,24.37ZM346.61,209.24h11.03c7.48,0,12.9-1.62,16.56-4.95,4-3.63,5.94-9.31,5.94-17.36,0-7.03-1.87-12.1-5.71-15.49-3.78-3.34-9.63-5.03-17.39-5.03h-10.44v42.83Z"/>
  <path d="M89.75,210.28h-12.06v-44.9h11.47c16.02,0,24.13,6.92,24.13,21.56,0,17.21-8.9,23.34-23.54,23.34M89.55,142.24h-44.3v137.06h32.44v-45.69h14.83c31.64,0,54.19-14.83,54.19-46.68,0-30.06-21.76-44.7-57.16-44.7"/>
  <path d="M77.68,280.33h-32.44c-.57,0-1.03-.46-1.03-1.03v-137.06c0-.57.46-1.03,1.03-1.03h44.3c37.53,0,58.19,16.24,58.19,45.73,0,15.64-5.25,27.78-15.62,36.09-9.49,7.6-23.18,11.62-39.61,11.62h-13.8v44.65c0,.57-.46,1.03-1.03,1.03ZM46.28,278.27h30.37v-44.65c0-.57.46-1.03,1.03-1.03h14.83c33.78,0,53.16-16.64,53.16-45.64,0-14.33-5.01-25.37-14.89-32.8-9.59-7.21-23.46-10.87-41.23-10.87h-43.27v134.99ZM89.75,211.31h-12.06c-.57,0-1.03-.46-1.03-1.03v-44.9c0-.57.46-1.03,1.03-1.03h11.47c16.7,0,25.16,7.6,25.16,22.59,0,16.4-8.04,24.37-24.57,24.37ZM78.71,209.24h11.03c7.48,0,12.9-1.62,16.56-4.95,4-3.63,5.94-9.31,5.94-17.36,0-7.03-1.87-12.1-5.71-15.49-3.78-3.34-9.63-5.03-17.39-5.03h-10.44v42.83Z"/>
  <g>
    <path d="M261.91,184.31c-3.82.01-6.91,2.67-6.87,5.82.04,3.76.08,7.51.12,11.27.03,3.13,3.38,5.8,7.13,5.79,3.82-.01,6.91-2.67,6.87-5.82-.04-3.76-.08-7.51-.12-11.27-.03-3.13-3.37-5.8-7.13-5.79"/>
    <path d="M193.94,207.19c3.82-.01,6.91-2.67,6.87-5.82-.04-3.76-.08-7.51-.12-11.27-.03-3.13-3.37-5.8-7.13-5.79-3.82.01-6.91,2.67-6.87,5.82.04,3.76.08,7.51.12,11.27.03,3.13,3.37,5.8,7.13,5.79"/>
  </g>
  <path d="M245.9,221.84c-10.94,7.43-24.54,7.95-36.14,1.19-5.92-3.45-10.93,5.92-5.02,9.37,14.72,8.59,32.75,8.14,46.7-1.33,5.57-3.78.07-13.04-5.54-9.23"/>
  <g>
    <g>
      <path class="st0" d="M88.42,33.85l-4.85,4.16c-3.31-3.14-6.12-4.42-10.54-4.42-14.28,0-19.89,18.44-19.89,33.4,0,10.11,3.91,14.45,11.13,14.45,3.48,0,6.8-.85,10.2-2.8l2.55-17.93h-8.92l.08-6.29h17.25l-3.82,27.88c-5.61,3.57-11.39,5.53-18.1,5.53-11.47,0-18.36-7.31-18.36-21.67,0-17.76,8.58-38.84,27.96-38.84,6.8,0,11.39,2.38,15.3,6.54Z"/>
      <path class="st0" d="M63.52,89.44c-12.7,0-19.98-8.49-19.98-23.29,0-20.11,10.16-40.46,29.58-40.46,6.72,0,11.96,2.24,16.48,7.05l1.16,1.23-7.23,6.22-1.06-1c-3.09-2.94-5.56-3.98-9.43-3.98-12.55,0-18.27,16.48-18.27,31.79,0,8.88,2.94,12.83,9.52,12.83,3.09,0,5.88-.71,8.71-2.21l2.17-15.29h-8.7l.13-9.52h20.7l-4.18,30.46-.63.4c-6.19,3.94-12.22,5.78-18.97,5.78ZM73.12,28.92c-10.38,0-16.53,6.52-19.87,11.99-4.12,6.75-6.48,15.95-6.48,25.24,0,13.12,5.79,20.06,16.74,20.06,5.88,0,11.17-1.55,16.61-4.88l3.47-25.29h-13.81l-.04,3.06h9.15l-2.92,20.56-.68.39c-3.53,2.03-7.13,3.02-11.01,3.02-8.46,0-12.75-5.41-12.75-16.07,0-8.49,1.73-16.88,4.76-23.03,3.86-7.85,9.65-12,16.75-12,4.23,0,7.3,1.11,10.56,3.88l2.44-2.1c-3.61-3.34-7.66-4.84-12.92-4.84Z"/>
    </g>
    <g>
      <path class="st0" d="M132.71,34.45h-19.97l-2.8,19.46h17.51l-.85,6.2h-17.51l-2.89,20.48h21.59l-1.02,6.2h-29.07l8.24-58.56h28.56l-1.79,6.2Z"/>
      <path class="st0" d="M128.13,88.42h-32.3l8.7-61.8h32.11l-2.72,9.44h-19.79l-2.34,16.23h17.5l-1.29,9.44h-17.51l-2.43,17.25h21.63l-1.55,9.44ZM99.55,85.19h25.84l.49-2.97h-21.55l3.35-23.72h17.5l.41-2.97h-17.52l3.27-22.7h20.16l.85-2.97h-25.01l-7.79,55.33Z"/>
    </g>
    <g>
      <path class="st0" d="M177.75,86.81h-10.03l-13.77-51.85c-.17,6.97-.68,13.68-2.21,24.56l-3.74,27.28h-7.14l8.24-58.56h10.03l13.85,51.93c.17-7.48.51-12.58,1.44-19.8l4.42-32.13h7.14l-8.24,58.56Z"/>
      <path class="st0" d="M179.16,88.42h-12.68l-11.46-43.14c-.33,3.97-.85,8.59-1.68,14.46l-3.93,28.68h-10.41l8.7-61.8h12.68l11.47,42.98c.23-3.05.54-6.01.99-9.45l4.61-33.54h10.41l-8.7,61.8ZM168.97,85.19h7.38l7.79-55.33h-3.87l-4.23,30.73c-.89,6.89-1.25,11.85-1.43,19.62l-3.18.38-13.53-50.73h-7.38l-7.79,55.33h3.87l3.55-25.89c1.61-11.43,2.04-18.02,2.2-24.38l3.18-.38,13.45,50.65Z"/>
    </g>
    <g>
      <path class="st0" d="M234.62,34.87h-14.36l-7.31,51.93h-7.65l7.31-51.93h-14.79l.93-6.63h37.65l-1.78,6.63Z"/>
      <path class="st0" d="M214.35,88.42h-10.91l7.31-51.93h-14.79l1.39-9.86h41.17l-2.65,9.86h-14.2l-7.31,51.93ZM207.15,85.19h4.38l7.31-51.93h14.53l.91-3.4h-34.14l-.48,3.4h14.79l-7.31,51.93Z"/>
    </g>
    <g>
      <path class="st0" d="M278.65,34.28l-4.67,4.33c-3.4-3.48-6.71-5.01-10.96-5.01-6.29,0-10.96,3.99-10.96,10.11,0,4.42,2.12,6.54,9.43,9.43,7.73,3.06,13.34,6.71,13.34,15.64,0,9.69-7.39,19.04-21.25,19.04-7.65,0-13.17-3.06-17.25-7.82l4.84-4.33c3.31,3.66,6.97,5.78,12.58,5.78,7.82,0,13.17-4.76,13.17-12.32,0-5.1-2.38-7.39-9.69-10.37-8.75-3.66-13-7.14-13-14.7,0-8.07,7.05-16.74,18.87-16.74,6.8,0,11.64,2.55,15.55,6.97Z"/>
      <path class="st0" d="M253.57,89.44c-7.5,0-13.71-2.82-18.48-8.38l-1.03-1.2,7.22-6.46,1.08,1.19c3.38,3.73,6.68,5.25,11.38,5.25,7.02,0,11.56-4.2,11.56-10.71,0-3.94-1.31-5.87-8.68-8.87-8.88-3.71-14.01-7.54-14.01-16.2,0-4.56,2-9.13,5.49-12.55,3.82-3.74,9.15-5.81,15-5.81,6.81,0,12.29,2.46,16.77,7.51l1.05,1.18-6.99,6.48-1.1-1.13c-3.1-3.17-6.03-4.53-9.81-4.53-5.59,0-9.35,3.42-9.35,8.5,0,3.4,1.27,5.11,8.41,7.93,6.95,2.75,14.37,6.57,14.37,17.14s-7.85,20.66-22.87,20.66ZM238.61,80.12c4,4.09,8.91,6.09,14.96,6.09,13.49,0,19.63-9.03,19.63-17.42,0-7.75-4.52-11.05-12.32-14.14-8.84-3.49-10.46-6.43-10.46-10.94,0-6.91,5.17-11.73,12.58-11.73,4.2,0,7.64,1.37,10.99,4.41l2.36-2.19c-3.64-3.59-7.89-5.28-13.26-5.28-10.8,0-17.25,7.69-17.25,15.13,0,6.21,2.92,9.42,12.01,13.21,7.08,2.88,10.68,5.51,10.68,11.86,0,8.34-5.94,13.94-14.79,13.94-5.05,0-9.02-1.6-12.66-5.15l-2.47,2.21Z"/>
    </g>
    <g>
      <path class="st0" d="M326.59,34.87h-14.36l-7.31,51.93h-7.65l7.31-51.93h-14.79l.93-6.63h37.65l-1.78,6.63Z"/>
      <path class="st0" d="M306.32,88.42h-10.91l7.31-51.93h-14.79l1.39-9.86h41.17l-2.65,9.86h-14.2l-7.31,51.93ZM299.12,85.19h4.38l7.31-51.93h14.53l.91-3.4h-34.14l-.48,3.4h14.79l-7.31,51.93Z"/>
    </g>
    <g>
      <path class="st0" d="M367.64,34.45h-19.97l-2.8,19.46h17.51l-.85,6.2h-17.51l-2.89,20.48h21.59l-1.02,6.2h-29.07l8.24-58.56h28.56l-1.79,6.2Z"/>
      <path class="st0" d="M363.06,88.42h-32.3l8.7-61.8h32.11l-2.72,9.44h-19.79l-2.34,16.23h17.5l-1.29,9.44h-17.51l-2.43,17.25h21.63l-1.55,9.44ZM334.48,85.19h25.84l.49-2.97h-21.55l3.35-23.72h17.5l.41-2.97h-17.52l3.27-22.7h20.16l.85-2.97h-25.01l-7.79,55.33Z"/>
    </g>
    <g>
      <path class="st0" d="M402.4,60.46l10.28,26.35h-8.24l-9.26-24.9h-8.24l-3.48,24.9h-7.65l8.24-58.56h13.51c12.07,0,18.02,5.18,18.02,14.11,0,7.22-3.74,14.79-13.17,18.1ZM394.33,55.87c10.54,0,13.34-7.22,13.34-13.26s-3.23-8.24-10.37-8.24h-6.46l-3.06,21.5h6.54Z"/>
      <path class="st0" d="M415.06,88.42h-11.73l-9.26-24.9h-5.72l-3.48,24.9h-10.92l8.7-61.8h14.92c17.08,0,19.64,9.85,19.64,15.73,0,8.61-4.71,15.61-12.7,19.02l10.56,27.05ZM405.57,85.19h4.76l-10.03-25.7,1.58-.55c10.92-3.84,12.09-12.87,12.09-16.58,0-8.29-5.52-12.49-16.4-12.49h-12.11l-7.79,55.33h4.38l3.48-24.9h10.77l9.26,24.9ZM394.33,57.48h-8.41l3.52-24.74h7.86c5.15,0,11.99,1.02,11.99,9.86,0,3.49-1.08,14.88-14.96,14.88ZM389.65,54.25h4.68c10.2,0,11.73-7.29,11.73-11.64,0-5.52-3.35-6.63-8.75-6.63h-5.06l-2.6,18.27Z"/>
    </g>
  </g>
</svg>